<?xml version="1.0" standalone="no"?>
<!DOCTYPE svg PUBLIC "-//W3C//DTD SVG 20010904//EN"
 "http://www.w3.org/TR/2001/REC-SVG-20010904/DTD/svg10.dtd">
<svg version="1.0" xmlns="http://www.w3.org/2000/svg"
 width="1500.000000pt" height="682.000000pt" viewBox="0 0 1500.000000 682.000000"
 preserveAspectRatio="xMidYMid meet">

<g transform="translate(0.000000,682.000000) scale(0.100000,-0.100000)"
fill="#000000" stroke="none">
<path d="M10765 5588 c-79 -43 -347 -165 -485 -220 -983 -395 -1942 -504
-2750 -313 -80 19 -156 37 -168 41 l-24 7 3 -299 3 -299 -412 -3 -412 -2 0
115 0 115 -216 0 -216 0 3 -112 4 -113 -467 -3 -468 -2 0 -93 c-1 -179 32
-2042 36 -2054 3 -10 229 -13 1088 -13 857 0 1087 -3 1093 -12 4 -7 10 -90 11
-185 l4 -171 -29 -15 c-101 -53 -144 -178 -109 -317 20 -75 53 -123 105 -149
l38 -20 6 -248 c4 -136 8 -336 8 -443 1 -107 4 -249 8 -315 l6 -120 80 -17
c415 -89 1009 -102 1510 -32 590 82 1223 286 1760 567 l120 63 0 280 c0 153
-2 468 -5 699 l-5 420 59 3 58 3 -7 477 c-4 262 -10 572 -14 687 l-6 210 -41
5 -41 5 92 495 c51 272 90 498 88 503 -2 4 -55 7 -117 7 l-113 0 -6 143 c-4
78 -8 248 -8 377 -1 129 -4 267 -8 305 l-6 70 -50 -27z m-401 -865 c3 -142 7
-359 8 -483 l3 -225 -24 -3 -24 -4 7 -105 c3 -59 6 -146 6 -195 0 -81 2 -90
20 -95 14 -4 20 -16 24 -47 4 -36 27 -1348 26 -1528 l0 -68 -65 0 -65 0 0 -30
0 -30 64 0 63 0 6 -38 c4 -20 7 -167 8 -327 l1 -290 -39 -27 c-66 -45 -260
-143 -390 -197 -354 -147 -780 -250 -1228 -296 -182 -19 -658 -31 -787 -21
l-86 8 -6 141 c-3 78 -7 247 -9 374 l-2 232 130 3 130 3 3 27 3 27 -133 3
-133 3 0 80 0 80 118 3 118 3 -3 27 -3 27 -117 3 -118 3 0 74 0 74 128 3 127
3 0 25 0 25 -126 3 c-121 2 -127 4 -133 25 -3 12 -6 93 -6 180 l0 157 584 0
c377 0 587 4 591 10 3 5 3 82 -1 170 l-7 160 -433 0 c-238 0 -435 3 -437 8 -3
4 -8 166 -12 360 l-7 352 231 0 231 0 0 -115 0 -114 -142 -3 -143 -3 0 -165 0
-165 331 -3 331 -2 -3 182 c-2 101 -7 312 -10 470 l-6 288 -562 2 -561 3 -3
38 -3 37 155 0 c118 0 156 3 156 13 0 20 41 400 46 425 4 22 7 22 163 22 l159
0 6 -27 c3 -16 17 -107 31 -203 14 -96 28 -187 31 -202 l6 -28 203 0 c112 0
206 4 209 9 3 4 -19 172 -48 372 -30 200 -51 367 -48 371 4 4 66 14 137 23 72
9 135 18 142 20 7 2 15 1 17 -4 3 -4 12 -412 21 -907 9 -494 18 -905 20 -911
3 -10 51 -13 194 -13 104 0 192 4 195 8 8 14 -27 1887 -36 1890 -14 6 -9 22 7
22 61 0 517 155 660 224 39 19 77 35 86 35 15 1 17 -27 23 -256z m-3321 -795
c4 -99 7 -210 7 -245 l0 -63 -723 0 -724 0 -6 107 c-9 138 -9 368 0 376 3 4
329 7 723 7 l717 0 6 -182z m17 -953 l0 -245 -720 0 c-568 0 -722 3 -725 13
-2 6 -6 117 -7 245 l-3 232 728 0 727 0 0 -245z m330 -1133 c0 -27 3 -104 7
-170 5 -107 4 -122 -10 -122 -23 0 -56 60 -68 124 -12 68 2 152 32 190 30 38
39 32 39 -22z"/>
<path d="M9737 4693 c-4 -8 14 -1104 27 -1725 l7 -288 -253 -2 -253 -3 -3
-150 c-1 -82 0 -160 3 -172 l5 -23 435 0 435 0 0 163 c-1 127 -37 2194 -39
2205 -2 6 -360 1 -364 -5z"/>
<path d="M8522 1960 c-109 -49 -158 -185 -117 -326 33 -114 97 -163 211 -164
97 0 168 42 200 117 23 54 19 73 -16 73 -20 0 -32 -6 -36 -17 -3 -10 -12 -32
-19 -50 -43 -99 -204 -94 -253 8 -47 98 -35 224 28 284 29 27 37 30 100 30 59
0 72 -3 95 -25 15 -14 31 -35 36 -47 6 -17 17 -23 39 -23 45 0 41 39 -11 95
-62 67 -168 86 -257 45z"/>
<path d="M8915 1958 c-2 -7 -1 -119 3 -248 l7 -235 33 -3 32 -3 0 112 0 111
100 -4 c129 -5 141 -15 151 -122 4 -42 10 -80 14 -86 3 -5 22 -10 42 -10 30 0
34 3 28 18 -4 9 -11 55 -16 102 -7 71 -13 88 -33 106 l-24 21 26 26 c20 21 27
38 30 85 4 52 1 61 -23 90 -14 17 -43 36 -63 42 -55 15 -302 13 -307 -2z m299
-69 c29 -22 35 -64 15 -102 -18 -34 -27 -37 -136 -37 -94 0 -103 2 -103 19 0
10 -3 46 -6 80 l-7 61 105 0 c91 0 109 -3 132 -21z"/>
<path d="M9415 1728 c4 -134 10 -246 14 -251 4 -4 86 -6 182 -5 l174 3 3 28 3
27 -150 0 -151 0 0 85 0 85 136 0 c120 0 135 2 130 16 -3 9 -6 22 -6 30 0 11
-27 14 -132 16 l-133 3 -3 73 -3 72 146 0 145 0 0 30 0 30 -181 0 -182 0 8
-242z"/>
<path d="M10005 1958 c-3 -7 -43 -118 -89 -246 -87 -242 -88 -248 -35 -240 18
2 27 16 43 65 12 34 26 67 32 73 7 7 45 10 99 8 98 -3 93 0 126 -90 19 -55 22
-58 55 -58 19 0 34 4 34 10 0 8 -116 321 -175 473 -8 20 -83 25 -90 5z m80
-173 c16 -44 30 -86 33 -92 3 -10 -15 -13 -71 -13 l-76 0 29 83 c38 112 42
120 50 110 4 -4 19 -44 35 -88z"/>
<path d="M11245 4708 c-3 -7 -43 -222 -90 -478 -48 -256 -89 -475 -92 -487
l-5 -23 201 0 c200 0 201 0 206 23 8 35 55 299 55 309 0 4 18 8 40 8 l40 0 0
-87 c-1 -193 21 -1454 26 -1540 l6 -93 209 0 209 0 0 190 0 190 306 0 c275 0
306 2 300 16 -3 9 -6 96 -6 195 l0 179 -305 0 -305 0 0 88 c0 48 -3 111 -6
140 l-7 52 307 0 306 0 -2 198 -3 197 -301 3 -301 2 -7 77 c-3 42 -6 102 -6
135 l0 58 314 0 c173 0 316 3 318 8 2 4 2 94 0 200 l-3 192 -525 0 c-324 0
-524 4 -524 9 0 6 9 58 21 117 11 58 18 113 15 120 -7 19 -384 21 -391 2z"/>
<path d="M3012 4670 c-244 -15 -446 -31 -449 -34 -7 -6 -6 -161 3 -658 l7
-348 538 0 539 0 0 163 c0 89 -3 213 -7 275 l-6 112 -209 0 -208 0 0 -90 0
-90 -115 0 -115 0 0 150 c0 147 0 150 23 154 12 3 155 12 317 21 162 9 298 19
302 22 10 5 10 172 2 276 l-7 77 -86 -1 c-47 -1 -285 -14 -529 -29z"/>
<path d="M3712 4488 l3 -183 53 -3 c39 -2 52 -7 52 -19 0 -17 -66 -553 -76
-615 l-6 -38 206 0 c156 0 208 3 211 13 3 6 20 140 40 297 19 157 38 302 41
323 l6 37 97 0 98 0 6 -97 c4 -54 7 -122 7 -150 l0 -53 -95 0 -95 0 0 -185 0
-185 311 0 311 0 -6 338 c-4 185 -9 419 -12 520 l-6 182 -574 0 -574 0 2 -182z"/>
<path d="M2627 3553 c-7 -12 15 -1197 22 -1204 3 -4 499 -8 1101 -10 l1095 -4
-4 600 c-2 380 -7 605 -13 613 -8 9 -241 12 -1104 12 -601 0 -1095 -3 -1097
-7z m893 -408 l0 -45 -232 2 -233 3 -3 43 -3 42 235 0 236 0 0 -45z m898 3
l-3 -43 -232 -3 -233 -2 0 45 0 45 236 0 235 0 -3 -42z m-890 -401 l3 -47
-233 2 -233 3 -3 33 c-6 65 -15 63 235 60 l228 -3 3 -48z m870 47 c19 -5 22
-13 22 -50 l0 -44 -232 2 -233 3 -3 33 c-6 64 -13 62 215 62 114 0 218 -3 231
-6z"/>
<path d="M5960 1963 c-91 -47 -107 -168 -30 -224 14 -10 63 -28 110 -39 143
-35 168 -52 155 -112 -11 -46 -57 -70 -130 -66 -72 4 -107 26 -128 81 -12 29
-21 37 -41 37 -23 0 -26 -4 -26 -34 0 -44 36 -94 85 -120 31 -16 56 -21 116
-20 130 3 189 49 189 147 0 40 -5 53 -33 83 -29 32 -46 40 -147 65 -63 16
-117 35 -122 42 -16 24 -8 68 17 92 19 20 34 25 74 25 67 0 99 -16 122 -62 15
-29 26 -38 44 -38 20 0 25 5 25 25 0 37 -25 80 -61 106 -45 31 -168 38 -219
12z"/>
<path d="M11075 1973 c-38 -8 -100 -59 -123 -101 -49 -88 -44 -210 11 -304 55
-94 202 -128 313 -73 61 30 87 64 110 140 38 133 -18 274 -131 326 -38 18
-126 23 -180 12z m148 -67 c113 -48 143 -231 56 -331 -70 -80 -207 -65 -259
26 -27 50 -38 150 -20 203 14 43 55 94 84 106 33 13 103 11 139 -4z"/>
<path d="M3428 1963 c-2 -5 -1 -116 2 -248 l5 -240 113 -3 c62 -1 130 2 152 8
121 32 155 163 63 239 -34 28 -35 29 -15 40 25 13 43 72 35 113 -6 32 -51 80
-85 90 -32 9 -266 10 -270 1z m260 -69 c16 -11 22 -25 22 -52 0 -20 -4 -42 -8
-49 -13 -21 -62 -33 -133 -33 l-69 0 0 75 0 75 83 0 c59 0 89 -5 105 -16z m6
-204 c66 -25 70 -110 6 -142 -25 -13 -59 -18 -117 -18 l-83 0 0 85 0 85 84 0
c47 0 96 -4 110 -10z"/>
<path d="M3888 1963 c-2 -5 -2 -116 1 -248 l6 -240 158 -3 157 -3 0 30 0 30
-122 3 -123 3 -6 205 c-3 113 -7 211 -8 218 -1 13 -57 17 -63 5z"/>
<path d="M4331 1738 c-46 -128 -84 -240 -85 -248 -1 -10 8 -15 29 -15 27 0 31
5 56 70 30 79 12 71 157 67 l67 -2 25 -68 c24 -65 26 -67 63 -70 20 -2 37 -1
37 2 0 8 -171 459 -181 479 -7 11 -22 17 -47 17 l-38 0 -83 -232z m188 -45 c1
-9 -19 -13 -69 -13 -38 0 -70 1 -70 3 0 8 60 178 66 189 7 11 72 -149 73 -179z"/>
<path d="M4730 1766 c0 -112 3 -224 6 -250 7 -45 8 -47 38 -44 l31 3 -4 195
c-2 107 0 192 5 187 4 -4 62 -91 128 -195 119 -184 122 -187 159 -190 l37 -3
0 250 0 251 -35 0 -35 0 -2 -191 -3 -192 -120 191 -120 192 -42 0 -43 0 0
-204z"/>
<path d="M5230 1736 c0 -129 3 -241 6 -250 4 -10 18 -16 35 -16 l29 0 0 88 0
88 39 38 38 37 73 -103 c101 -143 106 -148 152 -148 21 0 38 3 38 7 0 3 -45
67 -101 140 -55 74 -102 140 -105 147 -3 7 36 51 91 100 52 49 95 92 95 97 0
5 -19 9 -42 9 -41 0 -47 -5 -160 -117 l-118 -118 0 118 0 117 -35 0 -35 0 0
-234z"/>
<path d="M6352 1723 l3 -248 35 0 35 0 -3 103 -3 102 92 0 c149 0 209 43 209
150 0 48 -19 86 -58 115 -23 17 -46 20 -170 23 l-142 4 2 -249z m272 166 c20
-16 26 -29 26 -57 -1 -69 -41 -92 -162 -92 l-68 0 0 85 0 85 89 0 c74 0 92 -3
115 -21z"/>
<path d="M6857 1729 c-51 -143 -84 -246 -78 -252 5 -5 19 -7 32 -5 19 2 28 16
49 73 l26 70 98 0 99 0 26 -70 c24 -62 30 -70 55 -73 16 -2 32 0 36 5 5 4 -33
116 -84 248 l-91 240 -40 3 -40 3 -88 -242z m162 58 c17 -50 31 -95 31 -100 0
-4 -32 -7 -71 -7 -53 0 -70 3 -66 13 2 6 17 51 33 100 15 48 31 87 35 87 4 0
21 -42 38 -93z"/>
<path d="M11475 1733 c4 -131 8 -244 11 -251 2 -8 15 -12 31 -10 l28 3 -4 194
c-2 125 0 192 6 188 6 -4 65 -92 133 -197 118 -184 123 -190 155 -190 19 0 36
4 39 9 3 4 3 117 -1 250 l-6 241 -35 0 -34 0 6 -197 7 -198 -78 120 c-43 66
-101 155 -128 198 l-48 77 -44 0 -44 0 6 -237z"/>
<path d="M2890 1733 c1 -42 9 -44 191 -41 l174 3 3 28 3 27 -185 0 c-171 0
-186 -1 -186 -17z"/>
<path d="M12044 1728 c3 -13 6 -26 6 -31 0 -4 80 -6 178 -5 l177 3 3 28 3 27
-187 0 -186 0 6 -22z"/>
</g>
</svg>
