<svg version="1.0" xmlns="http://www.w3.org/2000/svg" width="800pt" height="600pt" viewBox="310 160 190 225" preserveAspectRatio="xMidYMid meet">
  <style>
    path { fill: #000000; fill-rule: evenodd; }
    @media (prefers-color-scheme: dark) {
      path { fill: #FFFFFF; }
    }
  </style>
  <g transform="translate(0,600) scale(0.1,-0.1)" stroke="none">
    <path d="M4960 3240 l0 -960 -455 0 -455 0 0 960 0 960 455 0 455 0 0 -960z m-1550 826 c0 -14 -4 -27 -9 -31 -6 -3 -67 -13 -138 -21 -70 -9 -136 -20 -145 -25 -15 -8 -18 -24 -18 -108 l0 -99 88 24 c121 33 114 29 100 59 -9 21 -9 29 4 41 11 12 21 13 33 7 15 -9 77 -131 89 -177 5 -19 12 -14 66 39 l60 59 0 83 0 82 -37 3 c-33 3 -38 6 -38 28 l0 25 173 0 174 0 24 -28 c23 -27 24 -35 24 -167 0 -162 3 -158 -107 -139 -83 14 -103 24 -103 49 0 17 8 22 40 22 3 0 29 -2 58 -6 l52 -7 0 88 c0 124 -7 133 -111 133 l-79 0 0 -92 0 -92 -67 -68 c-67 -68 -104 -85 -117 -53 -4 13 -9 13 -25 3 -25 -15 -46 0 -63 48 -8 23 -17 33 -28 29 -124 -38 -224 -65 -244 -65 -34 0 -39 23 -35 169 4 110 6 121 28 145 13 14 34 29 45 32 36 12 188 32 249 33 54 1 57 0 57 -23z m175 -441 c114 -29 210 -121 235 -225 7 -30 10 -172 8 -425 l-3 -380 -28 -57 c-49 -100 -143 -161 -277 -180 -191 -28 -347 39 -421 182 -24 45 -24 47 -27 438 -4 450 -3 456 75 542 51 56 102 87 178 106 70 17 190 17 260 -1z m-117 -1540 c28 -33 29 -65 2 -65 -11 0 -20 6 -20 14 0 42 -93 61 -124 27 -36 -40 -11 -62 95 -85 75 -16 105 -91 55 -141 -64 -64 -216 -30 -216 50 0 36 24 32 48 -9 23 -39 59 -50 112 -33 25 9 36 19 38 35 5 35 -14 50 -79 63 -76 15 -109 40 -109 83 0 36 23 73 54 87 11 5 44 7 71 4 38 -3 55 -11 73 -30z m907 21 c19 -8 41 -28 49 -45 21 -39 20 -41 -9 -41 -15 0 -25 6 -25 14 0 22 -40 46 -78 46 -24 0 -42 -9 -63 -29 -25 -26 -29 -37 -29 -86 0 -59 19 -109 45 -119 25 -9 74 -7 94 4 10 5 24 23 31 40 12 30 50 43 50 18 0 -28 -42 -80 -75 -94 -135 -56 -243 86 -172 226 35 71 107 97 182 66z m-611 -7 c50 -23 58 -106 15 -145 -15 -13 -41 -20 -90 -22 l-69 -4 0 -59 c0 -52 -2 -59 -20 -59 -19 0 -20 7 -20 150 l0 150 80 0 c43 0 90 -5 104 -11z m304 -132 c29 -78 52 -146 52 -150 0 -5 -10 -7 -22 -5 -14 2 -25 14 -33 38 -12 34 -13 35 -73 38 l-62 3 -16 -41 c-11 -27 -22 -40 -35 -40 -10 0 -19 3 -19 8 0 6 51 144 99 265 7 19 18 27 34 27 22 0 29 -14 75 -143z m672 123 c0 -19 -7 -20 -90 -20 l-90 0 0 -45 0 -45 86 0 c76 0 85 -2 82 -17 -3 -15 -16 -18 -86 -21 l-82 -3 0 -49 0 -50 90 0 c73 0 90 -3 90 -15 0 -12 -19 -15 -110 -15 l-110 0 0 150 0 150 110 0 c103 0 110 -1 110 -20z m-1550 -130 c0 -6 -33 -10 -80 -10 -47 0 -80 4 -80 10 0 6 33 10 80 10 47 0 80 -4 80 -10z m1780 0 c0 -6 -33 -10 -80 -10 -47 0 -80 4 -80 10 0 6 33 10 80 10 47 0 80 -4 80 -10z M4301 3991 c-72 -77 -131 -144 -131 -148 0 -5 5 -14 10 -19 7 -7 0 -32 -22 -80 l-33 -69 -3 -470 c-2 -312 1 -492 8 -534 29 -167 146 -280 311 -299 242 -28 412 93 448 318 14 82 14 838 1 940 -20 153 -106 266 -234 308 -79 26 -190 29 -262 7 -27 -8 -51 -15 -53 -15 -2 0 27 34 63 75 49 54 67 81 64 97 -7 48 -35 29 -167 -111z m333 -118 c64 -20 137 -88 167 -156 24 -52 24 -53 27 -525 3 -520 0 -556 -56 -637 -77 -111 -236 -151 -393 -100 -61 21 -118 71 -154 136 l-30 54 -3 435 -3 435 242 65 c133 36 248 70 257 76 19 14 7 54 -16 54 -9 0 -122 -29 -250 -63 -266 -73 -250 -77 -212 45 52 170 225 244 424 181z M3345 3555 c-74 -18 -99 -30 -139 -65 -33 -29 -67 -102 -54 -116 3 -3 46 6 94 20 49 13 108 29 132 36 l43 11 -3 61 c-2 34 -7 62 -13 64 -5 1 -32 -4 -60 -11z M3480 3515 c0 -30 4 -55 8 -55 5 0 32 7 61 16 60 17 81 14 81 -14 0 -27 -16 -37 -87 -57 l-63 -18 0 -484 0 -484 38 6 c123 21 208 81 234 167 18 60 19 734 0 794 -32 107 -95 155 -234 179 l-38 6 0 -56z M3267 3327 l-139 -40 4 -321 c5 -348 10 -382 63 -452 33 -43 83 -69 160 -83 32 -6 60 -11 62 -11 7 0 2 939 -4 943 -5 2 -70 -14 -146 -36z"/>
  </g>
</svg>
